<svg viewBox="0 0 100 100" width="100" height="100" xmlns="http://www.w3.org/2000/svg" fill="#64748b">
  <g>
    <animateTransform attributeName="transform" attributeType="XML" type="rotate" from="0 50 50" to="360 50 50" dur="4s" repeatCount="indefinite"></animateTransform>
    <path d="M94.4,56.6V43.4l-11.5-2.4c-0.8-3.3-2.1-6.4-3.8-9.3l6.5-9.5l-9.3-9.3l-9.5,6.5c-2.9-1.7-6-3-9.3-3.8L56.6,5.6H43.4
      l-2.4,11.5c-3.3,0.8-6.4,2.1-9.3,3.8l-9.5-6.5l-9.3,9.3l6.5,9.5c-1.7,2.9-3,6-3.8,9.3L5.6,43.4v13.2l11.5,2.4
      c0.8,3.3,2.1,6.4,3.8,9.3l-6.5,9.5l9.3,9.3l9.5-6.5c2.9,1.7,6,3,9.3,3.8l2.4,11.5h13.2l2.4-11.5c3.3-0.8,6.4-2.1,9.3-3.8l9.5,6.5
      l9.3-9.3l-6.5-9.5c1.7-2.9,3-6,3.8-9.3L94.4,56.6z M50,66c-8.8,0-16-7.2-16-16s7.2-16,16-16s16,7.2,16,16S58.8,66,50,66z"></path>
  </g>
</svg>
