<?xml version="1.0" standalone="no"?>
<!DOCTYPE svg PUBLIC "-//W3C//DTD SVG 20010904//EN"
 "http://www.w3.org/TR/2001/REC-SVG-20010904/DTD/svg10.dtd">
<svg version="1.0" xmlns="http://www.w3.org/2000/svg"
 width="500.000000pt" height="500.000000pt" viewBox="0 0 500.000000 500.000000"
 preserveAspectRatio="xMidYMid meet">

<g transform="translate(0.000000,500.000000) scale(0.100000,-0.100000)"
fill="#000000" stroke="none">
<path d="M0 2500 l0 -2500 2500 0 2500 0 0 2500 0 2500 -2500 0 -2500 0 0
-2500z m1310 1166 c0 -74 3 -95 15 -100 8 -3 15 -15 15 -26 0 -25 -45 -28 -72
-3 -15 14 -18 32 -18 120 l0 103 30 0 30 0 0 -94z m520 3 c0 -67 4 -94 15
-105 26 -27 18 -44 -20 -44 -47 0 -55 19 -55 139 l0 101 30 0 30 0 0 -91z
m450 -29 c0 -119 0 -120 -23 -120 -13 0 -28 5 -34 11 -8 8 -13 8 -17 0 -12
-19 -74 -13 -96 9 -29 29 -28 106 2 137 24 25 76 31 96 11 9 -9 12 -3 12 30 0
40 1 42 30 42 l30 0 0 -120z m848 -2 l3 -118 -31 0 c-17 0 -30 5 -30 12 0 9
-3 9 -12 0 -19 -19 -82 -15 -102 7 -25 28 -31 83 -12 119 19 37 57 50 98 34
28 -10 28 -10 28 30 0 37 2 39 28 36 l27 -3 3 -117z m-2169 98 c15 -8 32 -26
39 -40 10 -23 9 -26 -13 -32 -16 -4 -33 1 -50 14 -41 32 -85 10 -85 -44 0 -58
62 -88 93 -44 11 16 21 19 41 14 33 -8 33 -19 -3 -55 -25 -24 -38 -29 -78 -29
-74 1 -113 42 -113 118 0 86 90 138 169 98z m2571 -11 c0 -14 -4 -25 -10 -25
-6 0 -10 -28 -10 -64 0 -36 5 -68 10 -71 6 -3 10 -15 10 -26 0 -16 -7 -19 -56
-19 -52 0 -55 1 -52 23 2 12 9 21 16 20 8 -2 12 17 12 67 0 56 -3 70 -15 70
-15 0 -21 31 -8 43 3 4 28 7 55 7 45 0 48 -2 48 -25z m135 -49 c16 -41 32 -72
35 -70 3 3 17 36 31 72 26 64 28 67 60 67 l34 0 3 -112 3 -113 -30 0 c-29 0
-30 1 -33 58 l-3 57 -20 -55 c-17 -45 -25 -56 -46 -58 -23 -3 -28 3 -47 50
l-21 53 0 -52 c-1 -52 -2 -53 -31 -53 l-30 0 0 115 0 115 33 0 c31 0 34 -3 62
-74z m382 39 c29 -34 29 -43 -3 -51 -16 -4 -29 -1 -37 8 -22 28 -47 29 -73 3
-28 -28 -30 -51 -8 -83 19 -27 51 -28 79 -2 13 12 28 17 43 13 29 -7 28 -29
-4 -58 -38 -35 -111 -35 -153 1 -56 47 -50 146 13 185 44 28 112 21 143 -16z
m-2899 -27 c9 -9 12 -9 12 0 0 7 13 12 30 12 l30 0 0 -90 c0 -87 -1 -90 -23
-90 -13 0 -28 5 -34 11 -8 8 -13 8 -17 0 -12 -19 -74 -13 -96 9 -29 29 -28
106 2 137 24 25 76 31 96 11z m362 -15 l21 -28 -26 -8 c-18 -6 -31 -5 -38 2
-30 30 -66 -4 -52 -49 7 -21 39 -27 50 -10 8 12 52 13 59 1 3 -5 -4 -20 -15
-35 -17 -21 -29 -26 -65 -26 -80 0 -117 66 -79 140 17 34 27 38 82 39 34 1 45
-4 63 -26z m102 -35 c3 -60 4 -63 28 -63 24 0 25 3 28 63 3 61 3 62 32 62 l30
0 0 -90 c0 -89 0 -90 -25 -90 -14 0 -25 5 -25 11 0 8 -4 8 -14 0 -8 -7 -32
-11 -53 -9 -48 4 -63 31 -63 116 l0 62 30 0 c29 0 29 -1 32 -62z m376 50 c9
-9 12 -9 12 0 0 7 13 12 30 12 l30 0 0 -90 c0 -87 -1 -90 -23 -90 -13 0 -28 5
-34 11 -8 8 -13 8 -17 0 -12 -19 -68 -12 -93 11 -30 29 -32 94 -2 132 22 28
75 36 97 14z m477 -13 c19 -18 25 -35 25 -65 0 -57 -34 -90 -92 -90 -48 0 -57
5 -81 40 -26 37 -21 77 12 111 39 39 100 41 136 4z m115 13 c0 -9 3 -9 12 0 7
7 20 12 31 12 30 0 19 -53 -13 -60 -23 -5 -25 -11 -28 -63 -3 -56 -4 -57 -32
-57 l-30 0 0 90 0 90 30 0 c17 0 30 -5 30 -12z m188 0 c9 -9 12 -9 12 0 0 7
13 12 30 12 l30 0 0 -90 c0 -87 -1 -90 -23 -90 -13 0 -28 5 -34 11 -8 8 -13 8
-17 0 -12 -19 -68 -12 -93 11 -30 29 -32 94 -2 132 22 28 75 36 97 14z m542
-8 c40 -40 16 -82 -56 -98 -30 -7 -35 -11 -21 -17 9 -4 31 -2 47 5 24 10 33
10 46 -1 15 -12 14 -15 -6 -31 -26 -21 -106 -24 -131 -5 -73 56 -33 167 60
167 28 0 48 -7 61 -20z m-2408 -542 c2 -34 -1 -48 -9 -48 -9 0 -13 18 -13 57
0 68 16 61 22 -9z m-49 5 c9 -25 14 -49 11 -52 -4 -3 -9 0 -11 7 -6 14 -39 16
-48 2 -16 -26 -23 -6 -10 31 27 75 34 76 58 12z m90 34 c3 -7 3 -26 0 -41 -4
-18 -1 -31 8 -37 11 -7 9 -9 -7 -9 -18 0 -23 7 -26 38 -5 39 -1 62 12 62 4 0
10 -6 13 -13z m47 -48 c0 -41 24 -33 28 9 5 46 22 39 22 -9 0 -39 -1 -40 -32
-37 -30 3 -33 6 -36 42 -2 25 0 36 7 31 6 -3 11 -20 11 -36z m110 30 c0 -5 -4
-9 -10 -9 -5 0 -10 -13 -10 -30 0 -16 -4 -30 -10 -30 -5 0 -10 17 -10 38 0 31
4 38 20 39 11 1 20 -2 20 -8z m90 -31 c0 -37 -1 -38 -35 -38 -41 0 -62 28 -45
60 7 14 20 19 45 18 34 -1 35 -3 35 -40z m30 32 c0 -5 -4 -10 -10 -10 -5 0
-10 5 -10 10 0 6 5 10 10 10 6 0 10 -4 10 -10z m0 -60 c0 -5 -4 -10 -10 -10
-5 0 -10 5 -10 10 0 6 5 10 10 10 6 0 10 -4 10 -10z m2844 -86 c23 -22 23
-196 0 -218 -14 -14 -176 -16 -1634 -16 -1458 0 -1620 2 -1634 16 -12 12 -16
37 -16 109 0 72 4 97 16 109 14 14 176 16 1634 16 1458 0 1620 -2 1634 -16z
m-3215 -468 c15 -18 3 -46 -20 -46 -12 0 -19 -7 -19 -20 0 -11 -4 -20 -10 -20
-5 0 -10 23 -10 50 0 46 2 50 24 50 13 0 29 -6 35 -14z m81 -21 c16 -19 4 -35
-26 -35 -14 0 -22 -4 -19 -10 3 -6 18 -7 32 -4 18 5 24 3 19 -5 -4 -6 -20 -11
-36 -11 -23 0 -31 5 -36 25 -11 45 37 75 66 40z m78 -4 c3 -9 -2 -11 -19 -7
l-24 6 23 -11 c31 -17 29 -49 -2 -49 -14 0 -28 5 -32 11 -4 8 0 9 15 4 12 -4
21 -2 21 4 0 6 -6 11 -14 11 -19 0 -29 17 -22 36 7 18 47 15 54 -5z m82 5 c6
-8 10 -25 8 -38 -2 -19 -9 -23 -38 -23 -29 0 -36 4 -38 23 -4 28 14 52 38 52
10 0 23 -7 30 -14z m40 4 c0 -5 -4 -10 -10 -10 -5 0 -10 5 -10 10 0 6 5 10 10
10 6 0 10 -4 10 -10z m0 -60 c0 -5 -4 -10 -10 -10 -5 0 -10 5 -10 10 0 6 5 10
10 10 6 0 10 -4 10 -10z m2934 -86 c23 -22 23 -196 0 -218 -14 -14 -176 -16
-1634 -16 -1458 0 -1620 2 -1634 16 -12 12 -16 37 -16 109 0 72 4 97 16 109
14 14 176 16 1634 16 1458 0 1620 -2 1634 -16z m-1888 -628 c10 -8 16 -18 12
-22 -4 -4 -14 -1 -23 6 -21 18 -45 5 -45 -25 0 -30 24 -43 45 -25 17 14 31 8
20 -9 -3 -6 -22 -11 -41 -11 -27 0 -37 5 -43 23 -10 26 -4 47 17 65 20 16 34
15 58 -2z m90 -31 c9 -25 13 -49 9 -53 -4 -4 -10 -1 -12 6 -3 6 -13 12 -23 12
-10 0 -20 -6 -23 -12 -2 -7 -8 -10 -12 -6 -9 9 23 98 35 98 5 0 16 -20 26 -45z
m62 -48 c10 -3 5 -5 -10 -6 -26 -1 -28 1 -28 42 0 59 14 70 18 14 2 -33 8 -47
20 -50z m97 77 c21 -21 13 -29 -13 -13 -37 23 -70 -24 -37 -51 12 -10 19 -10
27 -2 7 7 18 12 26 12 12 0 12 -3 2 -16 -8 -9 -25 -14 -44 -12 -23 2 -33 10
-41 32 -8 24 -6 31 14 47 28 23 45 24 66 3z m47 -34 c2 -19 8 -35 13 -35 6 0
11 16 13 35 6 58 24 62 20 5 -3 -48 -4 -50 -33 -50 -29 0 -30 2 -33 50 -4 57
14 53 20 -5z m88 -1 c0 -32 4 -39 19 -39 14 0 23 11 31 38 21 64 35 63 59 -7
10 -31 4 -63 -6 -33 -5 14 -43 16 -43 2 0 -5 -18 -10 -40 -10 l-40 0 0 51 c0
31 4 48 10 44 6 -3 10 -24 10 -46z m179 41 c13 -6 18 -21 18 -50 0 -40 -10
-53 -21 -25 -3 8 -10 15 -16 15 -5 0 -10 -7 -10 -15 0 -8 -4 -15 -10 -15 -5 0
-10 23 -10 50 0 53 10 61 49 40z m-509 -410 c0 -34 3 -40 21 -40 19 0 21 5 17
40 -3 31 0 40 12 40 11 0 15 -11 15 -45 l0 -45 -47 0 -48 0 0 45 c0 33 4 45
15 45 11 0 15 -11 15 -40z m119 8 l12 -33 17 33 c22 44 32 40 32 -13 0 -25 -4
-45 -10 -45 -5 0 -10 8 -10 18 -1 16 -1 16 -11 0 -13 -24 -24 -23 -37 5 l-11
22 0 -22 c-2 -44 -21 -23 -21 22 0 54 19 60 39 13z m145 23 c10 -16 -5 -41
-25 -41 -12 0 -19 -7 -19 -20 0 -11 -4 -20 -10 -20 -5 0 -10 20 -10 45 0 43 1
45 29 45 17 0 32 -4 35 -9z m64 -34 c8 -21 11 -41 7 -45 -4 -4 -10 -1 -12 6
-5 14 -43 16 -43 2 0 -5 -5 -10 -11 -10 -6 0 -8 9 -3 23 25 80 37 85 62 24z
m87 8 c1 -17 4 -36 8 -43 5 -7 3 -12 -3 -12 -6 0 -13 7 -16 15 -4 8 -12 15
-20 15 -8 0 -14 -7 -14 -15 0 -8 -4 -15 -10 -15 -5 0 -10 21 -10 46 0 45 0 45
33 42 28 -3 32 -7 32 -33z"/>
<path d="M2154 3636 c-12 -31 0 -61 25 -61 31 0 50 28 35 53 -14 22 -52 28
-60 8z"/>
<path d="M3002 3638 c-25 -25 -6 -68 30 -68 9 0 22 9 28 20 22 40 -26 80 -58
48z"/>
<path d="M1094 3636 c-12 -31 0 -61 25 -61 31 0 50 28 35 53 -14 22 -52 28
-60 8z"/>
<path d="M1934 3636 c-12 -32 0 -61 28 -64 22 -3 29 2 34 22 7 31 -10 56 -38
56 -10 0 -21 -6 -24 -14z"/>
<path d="M2372 3638 c-27 -27 -3 -73 35 -66 27 5 25 72 -2 76 -11 1 -26 -3
-33 -10z"/>
<path d="M2714 3636 c-12 -32 0 -61 28 -64 22 -3 29 2 34 22 7 31 -10 56 -38
56 -10 0 -21 -6 -24 -14z"/>
<path d="M3220 3645 c-7 -8 -10 -18 -7 -21 11 -11 59 6 54 19 -6 18 -32 20
-47 2z"/>
<path d="M817 3141 c-3 -14 0 -21 9 -21 16 0 18 9 5 28 -6 10 -10 9 -14 -7z"/>
<path d="M1124 3139 c-10 -17 23 -46 37 -32 7 7 9 19 6 27 -7 18 -33 21 -43 5z"/>
<path d="M820 2905 c0 -40 2 -45 23 -44 16 1 18 2 5 6 -14 3 -17 13 -15 44 2
21 0 39 -5 39 -4 0 -8 -20 -8 -45z"/>
<path d="M1261 2913 c-1 -23 3 -44 7 -47 4 -2 6 12 4 32 -5 56 -10 62 -11 15z"/>
<path d="M1432 2913 c-1 -23 -8 -44 -14 -46 -7 -3 1 -6 17 -6 17 0 25 3 18 7
-6 4 -13 25 -16 47 l-4 40 -1 -42z"/>
<path d="M1033 2895 c0 -22 2 -30 4 -17 2 12 2 30 0 40 -3 9 -5 -1 -4 -23z"/>
<path d="M1173 2880 c0 -30 2 -43 4 -27 2 15 2 39 0 55 -2 15 -4 2 -4 -28z"/>
<path d="M900 2900 c6 -11 13 -20 16 -20 2 0 0 9 -6 20 -6 11 -13 20 -16 20
-2 0 0 -9 6 -20z"/>
<path d="M990 2900 c-9 -6 -10 -10 -3 -10 6 0 15 5 18 10 8 12 4 12 -15 0z"/>
<path d="M1231 2894 c0 -11 3 -14 6 -6 3 7 2 16 -1 19 -3 4 -6 -2 -5 -13z"/>
<path d="M1308 2868 c5 -5 16 -8 23 -6 8 3 3 7 -10 11 -17 4 -21 3 -13 -5z"/>
<path d="M1615 2870 c-16 -7 -17 -9 -3 -9 9 -1 20 4 23 9 7 11 7 11 -20 0z"/>
<path d="M978 2863 c7 -3 16 -2 19 1 4 3 -2 6 -13 5 -11 0 -14 -3 -6 -6z"/>
<path d="M810 2524 c0 -17 22 -14 28 4 2 7 -3 12 -12 12 -9 0 -16 -7 -16 -16z"/>
<path d="M880 2510 c0 -5 6 -10 14 -10 8 0 18 5 21 10 3 6 -3 10 -14 10 -12 0
-21 -4 -21 -10z"/>
<path d="M1042 2498 c2 -13 10 -23 18 -23 8 0 16 10 18 23 3 17 -2 22 -18 22
-16 0 -21 -5 -18 -22z"/>
<path d="M820 2275 c0 -40 2 -45 23 -44 16 1 18 2 5 6 -14 3 -17 13 -15 44 2
21 0 39 -5 39 -4 0 -8 -20 -8 -45z"/>
<path d="M1261 2283 c-1 -23 3 -44 7 -47 4 -2 6 12 4 32 -5 56 -10 62 -11 15z"/>
<path d="M1033 2265 c0 -22 2 -30 4 -17 2 12 2 30 0 40 -3 9 -5 -1 -4 -23z"/>
<path d="M1173 2250 c0 -30 2 -43 4 -27 2 15 2 39 0 55 -2 15 -4 2 -4 -28z"/>
<path d="M900 2270 c6 -11 13 -20 16 -20 2 0 0 9 -6 20 -6 11 -13 20 -16 20
-2 0 0 -9 6 -20z"/>
<path d="M990 2270 c-9 -6 -10 -10 -3 -10 6 0 15 5 18 10 8 12 4 12 -15 0z"/>
<path d="M1231 2264 c0 -11 3 -14 6 -6 3 7 2 16 -1 19 -3 4 -6 -2 -5 -13z"/>
<path d="M1308 2238 c5 -5 16 -8 23 -6 8 3 3 7 -10 11 -17 4 -21 3 -13 -5z"/>
<path d="M1608 2238 c5 -5 16 -8 23 -6 8 3 3 7 -10 11 -17 4 -21 3 -13 -5z"/>
<path d="M978 2233 c7 -3 16 -2 19 1 4 3 -2 6 -13 5 -11 0 -14 -3 -6 -6z"/>
<path d="M2230 1710 c0 -5 5 -10 10 -10 6 0 10 5 10 10 0 6 -4 10 -10 10 -5 0
-10 -4 -10 -10z"/>
<path d="M2630 1710 c0 -5 5 -10 10 -10 6 0 10 5 10 10 0 6 -4 10 -10 10 -5 0
-10 -4 -10 -10z"/>
<path d="M2710 1735 c0 -9 5 -15 11 -13 6 2 11 8 11 13 0 5 -5 11 -11 13 -6 2
-11 -4 -11 -13z"/>
<path d="M2450 1365 c0 -9 5 -15 11 -13 6 2 11 8 11 13 0 5 -5 11 -11 13 -6 2
-11 -4 -11 -13z"/>
<path d="M2520 1340 c0 -5 5 -10 10 -10 6 0 10 5 10 10 0 6 -4 10 -10 10 -5 0
-10 -4 -10 -10z"/>
<path d="M2600 1365 c0 -8 7 -15 15 -15 8 0 15 7 15 15 0 8 -7 15 -15 15 -8 0
-15 -7 -15 -15z"/>
</g>
</svg>
